<svg width="148" height="55" viewBox="0 0 148 55" fill="none" xmlns="http://www.w3.org/2000/svg">
<g clip-path="url(#clip0_1318_178)">
<g clip-path="url(#clip1_1318_178)">
<path d="M41.4657 39.3158C41.7952 38.745 42 38.1018 42 37.5242V17.4755C42 16.898 41.7955 16.2549 41.4658 15.6841L21 27.4999L41.4657 39.3158Z" fill="#D4D4D4"/>
<path d="M22.8185 50.6985L40.1812 40.6743C40.6814 40.3855 41.136 39.8868 41.4655 39.3159L20.9998 27.5L0.53418 39.316C0.863729 39.8868 1.31845 40.3856 1.81847 40.6743L19.1812 50.6985C20.1814 51.2761 21.8183 51.2761 22.8185 50.6985Z" fill="#D4D4D4"/>
<path d="M41.4658 15.684C41.1361 15.113 40.6814 14.6144 40.1814 14.3256L22.8186 4.30134C21.8185 3.72377 20.1816 3.72377 19.1814 4.30134L1.81863 14.3256C0.818314 14.903 0 16.3206 0 17.4756V37.5243C0 38.1019 0.204647 38.745 0.534333 39.3159L21 27.5L41.4658 15.684Z" fill="#D4D4D4"/>
<path d="M21 41.5C13.2804 41.5 7 35.2196 7 27.5C7 19.7804 13.2804 13.5 21 13.5C25.9813 13.5 30.6269 16.1806 33.1239 20.4956L27.065 24.0016C25.8153 21.8418 23.4912 20.5 21 20.5C17.1401 20.5 14 23.6401 14 27.5C14 31.3597 17.1401 34.5 21 34.5C23.4915 34.5 25.8156 33.1582 27.0654 30.9979L33.1243 34.5038C30.6273 38.8193 25.9815 41.5 21 41.5Z" fill="#5E5E5E"/>
<path d="M34.9997 26.7223H33.444V25.1667H31.8887V26.7223H30.333V28.2778H31.8887V29.8334H33.444V28.2778H34.9997V26.7223Z" fill="#5E5E5E"/>
<path d="M40.8337 26.7223H39.278V25.1667H37.7226V26.7223H36.167V28.2778H37.7226V29.8334H39.278V28.2778H40.8337V26.7223Z" fill="#5E5E5E"/>
</g>
<path d="M91.9179 24.8782H88.8526C88.7652 24.3756 88.604 23.9303 88.3691 23.5423C88.1341 23.1489 87.8418 22.8156 87.4921 22.5424C87.1424 22.2692 86.7436 22.0643 86.2955 21.9277C85.8529 21.7857 85.3749 21.7146 84.8612 21.7146C83.9488 21.7146 83.1401 21.9441 82.4353 22.4031C81.7304 22.8566 81.1786 23.5232 80.7797 24.4029C80.3809 25.2771 80.1814 26.3453 80.1814 27.6075C80.1814 28.8915 80.3809 29.9733 80.7797 30.853C81.184 31.7272 81.7359 32.3884 82.4353 32.8364C83.1401 33.279 83.946 33.5003 84.8531 33.5003C85.3557 33.5003 85.8256 33.4347 86.2627 33.3036C86.7053 33.167 87.1014 32.9675 87.4511 32.7053C87.8063 32.443 88.1041 32.1206 88.3445 31.7382C88.5904 31.3557 88.7597 30.9186 88.8526 30.4268L91.9179 30.4432C91.8031 31.2409 91.5545 31.9895 91.1721 32.6889C90.795 33.3883 90.3006 34.0057 89.6886 34.5411C89.0766 35.0711 88.3609 35.4864 87.5413 35.7869C86.7217 36.082 85.812 36.2295 84.8121 36.2295C83.3368 36.2295 82.02 35.888 80.8617 35.205C79.7033 34.522 78.7909 33.5358 78.1243 32.2463C77.4577 30.9568 77.1244 29.4105 77.1244 27.6075C77.1244 25.7989 77.4604 24.2526 78.1325 22.9686C78.8045 21.6791 79.7197 20.6929 80.8781 20.0099C82.0364 19.3269 83.3478 18.9854 84.8121 18.9854C85.7464 18.9854 86.6152 19.1166 87.4184 19.3788C88.2215 19.6411 88.9373 20.0263 89.5657 20.5344C90.194 21.0371 90.7104 21.6545 91.1147 22.3867C91.5245 23.1134 91.7922 23.9439 91.9179 24.8782ZM99.5216 33.3118V21.9687H102.095V33.3118H99.5216ZM95.1368 28.927V26.3535H106.48V28.927H95.1368ZM115.051 33.3118V21.9687H117.624V33.3118H115.051ZM110.666 28.927V26.3535H122.009V28.927H110.666Z" fill="#D4D4D4"/>
</g>
<defs>
<clipPath id="clip0_1318_178">
<rect width="148" height="55" fill="white"/>
</clipPath>
<clipPath id="clip1_1318_178">
<rect width="42" height="47.2637" fill="white" transform="translate(0 3.86816)"/>
</clipPath>
</defs>
</svg>
