<svg width="193" height="55" viewBox="0 0 193 55" fill="none" xmlns="http://www.w3.org/2000/svg">
<g clip-path="url(#clip0_1817_31)">
<g clip-path="url(#clip1_1817_31)">
<path d="M0 7.5H40V47.5H0V7.5Z" fill="#D4D4D4"/>
<path d="M36.7266 37.9602C36.4338 36.1351 35.2437 34.6028 31.719 33.1731C30.4947 32.6104 29.1296 32.2074 28.7228 31.2796C28.5783 30.7396 28.5593 30.4355 28.6506 30.1085C28.9129 29.0476 30.1791 28.7168 31.1829 29.021C31.8293 29.2377 32.4414 29.7359 32.8102 30.5305C34.5365 29.4127 34.5327 29.4203 35.738 28.6522C35.2969 27.9678 35.0612 27.6522 34.7722 27.3595C33.7342 26.1998 32.3198 25.6028 30.0574 25.6484C29.6658 25.6979 29.2704 25.7511 28.8787 25.8005C27.7494 26.0857 26.6734 26.6788 26.0422 27.4735C24.1487 29.6218 24.6886 33.3822 26.9928 34.9298C29.2627 36.6332 32.5973 37.0211 33.0232 38.6142C33.4376 40.5648 31.5898 41.1959 29.7532 40.9716C28.3996 40.6903 27.6468 40.002 26.8331 38.7511C25.335 39.618 25.335 39.618 23.7951 40.5039C24.1601 41.3024 24.5441 41.6636 25.1563 42.3557C28.0536 45.2948 35.3045 45.1503 36.605 40.7017C36.6582 40.5495 37.008 39.5305 36.7266 37.9602ZM21.7456 25.8841H18.0042C18.0042 29.1161 17.989 32.3252 17.989 35.5571C17.989 37.6142 18.0955 39.5001 17.7609 40.078C17.2133 41.2149 15.7951 41.0742 15.1487 40.8537C14.4909 40.5305 14.1563 40.0704 13.7685 39.4203C13.662 39.2339 13.5822 39.0895 13.5555 39.078C12.5403 39.6978 11.5289 40.3214 10.5137 40.9412C11.0194 41.9792 11.7646 42.8803 12.719 43.4658C14.1449 44.3214 16.0612 44.5837 18.065 44.1236C19.3692 43.7434 20.4947 42.9564 21.084 41.7587C21.9357 40.1883 21.7532 38.2872 21.7456 36.1845C21.7646 32.7549 21.7456 29.3252 21.7456 25.8841Z" fill="#323330"/>
</g>
<path d="M58.5446 19.2149H61.5607V31.0169C61.5552 32.0988 61.3258 33.0304 60.8723 33.8117C60.4188 34.5876 59.7849 35.1859 58.9708 35.6066C58.1622 36.0219 57.2196 36.2295 56.1433 36.2295C55.1598 36.2295 54.2746 36.0546 53.4878 35.7049C52.7065 35.3498 52.0863 34.8253 51.6273 34.1313C51.1684 33.4374 50.9389 32.5741 50.9389 31.5415H53.9632C53.9686 31.995 54.067 32.3856 54.2582 32.7135C54.4549 33.0413 54.7254 33.2926 55.0696 33.4675C55.4138 33.6423 55.81 33.7298 56.258 33.7298C56.7443 33.7298 57.1568 33.6287 57.4956 33.4265C57.8343 33.2189 58.0911 32.9129 58.266 32.5086C58.4463 32.1042 58.5392 31.607 58.5446 31.0169V19.2149ZM67.015 36H63.7695L69.6787 19.2149H73.4324L79.3498 36H76.1042L71.6211 22.6572H71.49L67.015 36ZM67.1216 29.4187H75.9731V31.8611H67.1216V29.4187ZM81.8905 19.2149L86.2589 32.4266H86.431L90.7912 19.2149H94.1351L88.2177 36H84.464L78.5548 19.2149H81.8905ZM96.5406 36H93.295L99.2042 19.2149H102.958L108.875 36H105.63L101.147 22.6572H101.016L96.5406 36ZM96.6471 29.4187H105.499V31.8611H96.6471V29.4187ZM119.938 23.8292C119.861 23.1134 119.539 22.5561 118.971 22.1572C118.408 21.7584 117.676 21.5589 116.774 21.5589C116.14 21.5589 115.597 21.6545 115.143 21.8458C114.69 22.037 114.343 22.2965 114.102 22.6244C113.862 22.9522 113.739 23.3265 113.733 23.7472C113.733 24.0969 113.813 24.4001 113.971 24.6569C114.135 24.9138 114.356 25.1323 114.635 25.3126C114.914 25.4875 115.222 25.635 115.561 25.7552C115.9 25.8754 116.241 25.9765 116.586 26.0584L118.159 26.4518C118.793 26.5994 119.402 26.7988 119.987 27.0501C120.577 27.3015 121.104 27.6184 121.569 28.0009C122.039 28.3833 122.41 28.845 122.683 29.386C122.956 29.9269 123.093 30.5607 123.093 31.2874C123.093 32.2709 122.842 33.1369 122.339 33.8855C121.836 34.6286 121.11 35.2105 120.159 35.6312C119.214 36.0464 118.069 36.2541 116.725 36.2541C115.419 36.2541 114.285 36.0519 113.324 35.6476C112.367 35.2433 111.619 34.6531 111.078 33.8773C110.542 33.1014 110.253 32.1561 110.209 31.0415H113.201C113.244 31.6262 113.425 32.1124 113.742 32.5004C114.059 32.8883 114.471 33.1779 114.979 33.3691C115.493 33.5604 116.066 33.656 116.7 33.656C117.361 33.656 117.941 33.5576 118.438 33.3609C118.941 33.1588 119.334 32.8801 119.618 32.525C119.902 32.1643 120.047 31.7436 120.052 31.2628C120.047 30.8257 119.919 30.4651 119.667 30.1809C119.416 29.8914 119.063 29.651 118.61 29.4597C118.162 29.263 117.637 29.0882 117.036 28.9352L115.127 28.4434C113.744 28.0883 112.652 27.5501 111.848 26.8288C111.051 26.1022 110.652 25.1378 110.652 23.9357C110.652 22.9467 110.92 22.0807 111.455 21.3376C111.996 20.5945 112.731 20.0181 113.66 19.6083C114.589 19.1931 115.64 18.9854 116.815 18.9854C118.006 18.9854 119.05 19.1931 119.946 19.6083C120.847 20.0181 121.555 20.5891 122.069 21.3212C122.582 22.0479 122.847 22.8839 122.864 23.8292H119.938ZM140.171 24.8782H137.106C137.018 24.3756 136.857 23.9303 136.622 23.5423C136.387 23.1489 136.095 22.8156 135.745 22.5424C135.396 22.2692 134.997 22.0643 134.549 21.9277C134.106 21.7857 133.628 21.7146 133.115 21.7146C132.202 21.7146 131.393 21.9441 130.689 22.4031C129.984 22.8566 129.432 23.5232 129.033 24.4029C128.634 25.2771 128.435 26.3453 128.435 27.6075C128.435 28.8915 128.634 29.9733 129.033 30.853C129.437 31.7272 129.989 32.3884 130.689 32.8364C131.393 33.279 132.199 33.5003 133.106 33.5003C133.609 33.5003 134.079 33.4347 134.516 33.3036C134.959 33.167 135.355 32.9675 135.704 32.7053C136.06 32.443 136.357 32.1206 136.598 31.7382C136.844 31.3557 137.013 30.9186 137.106 30.4268L140.171 30.4432C140.056 31.2409 139.808 31.9895 139.425 32.6889C139.048 33.3883 138.554 34.0057 137.942 34.5411C137.33 35.0711 136.614 35.4864 135.795 35.7869C134.975 36.082 134.065 36.2295 133.065 36.2295C131.59 36.2295 130.273 35.888 129.115 35.205C127.957 34.522 127.044 33.5358 126.378 32.2463C125.711 30.9568 125.378 29.4105 125.378 27.6075C125.378 25.7989 125.714 24.2526 126.386 22.9686C127.058 21.6791 127.973 20.6929 129.131 20.0099C130.29 19.3269 131.601 18.9854 133.065 18.9854C134 18.9854 134.868 19.1166 135.672 19.3788C136.475 19.6411 137.191 20.0263 137.819 20.5344C138.447 21.0371 138.964 21.6545 139.368 22.3867C139.778 23.1134 140.045 23.9439 140.171 24.8782ZM142.956 36V19.2149H149.25C150.54 19.2149 151.621 19.4389 152.496 19.887C153.375 20.335 154.039 20.9634 154.487 21.772C154.941 22.5752 155.168 23.5123 155.168 24.5832C155.168 25.6596 154.938 26.5939 154.479 27.3862C154.026 28.173 153.356 28.7822 152.471 29.2138C151.586 29.64 150.499 29.8531 149.209 29.8531H144.726V27.3288H148.799C149.553 27.3288 150.171 27.225 150.652 27.0174C151.132 26.8043 151.488 26.4956 151.717 26.0912C151.952 25.6814 152.069 25.1788 152.069 24.5832C152.069 23.9876 151.952 23.4795 151.717 23.0588C151.482 22.6326 151.124 22.3102 150.643 22.0916C150.163 21.8676 149.542 21.7556 148.783 21.7556H145.996V36H142.956ZM151.627 28.3943L155.782 36H152.389L148.308 28.3943H151.627ZM161.007 19.2149V36H157.966V19.2149H161.007ZM164.3 36V19.2149H170.594C171.884 19.2149 172.965 19.4553 173.84 19.9361C174.719 20.417 175.383 21.0781 175.831 21.9195C176.285 22.7555 176.512 23.7062 176.512 24.7717C176.512 25.8481 176.285 26.8043 175.831 27.6402C175.378 28.4762 174.708 29.1346 173.823 29.6154C172.938 30.0908 171.848 30.3285 170.553 30.3285H166.381V27.8287H170.143C170.897 27.8287 171.515 27.6976 171.996 27.4353C172.476 27.1731 172.832 26.8125 173.061 26.3535C173.296 25.8945 173.414 25.3673 173.414 24.7717C173.414 24.1761 173.296 23.6516 173.061 23.1981C172.832 22.7446 172.474 22.3922 171.987 22.1408C171.507 21.884 170.886 21.7556 170.127 21.7556H167.34V36H164.3ZM178.415 21.7638V19.2149H191.807V21.7638H186.619V36H183.603V21.7638H178.415Z" fill="#D4D4D4"/>
</g>
<defs>
<clipPath id="clip0_1817_31">
<rect width="193" height="55" fill="white"/>
</clipPath>
<clipPath id="clip1_1817_31">
<rect width="40" height="40" fill="white" transform="translate(0 7.5)"/>
</clipPath>
</defs>
</svg>
