<svg width="120" height="24" viewBox="0 0 200 40" fill="none" xmlns="http://www.w3.org/2000/svg">
<g clip-path="url(#clip0_1370_2184)">
<path d="M6.67045 29.5H1.62784V11.3182H7.06108C8.76563 11.3182 10.2246 11.6792 11.4379 12.4013C12.6512 13.1233 13.5804 14.1591 14.2255 15.5085C14.8765 16.852 15.1991 18.4648 15.1932 20.3469C15.1873 22.2705 14.8499 23.9158 14.1811 25.283C13.5123 26.6443 12.5446 27.6889 11.2781 28.4169C10.0115 29.139 8.47562 29.5 6.67045 29.5ZM2.73757 28.4702H6.62607C8.24775 28.4702 9.61494 28.1476 10.7276 27.5025C11.8403 26.8514 12.6808 25.9193 13.2489 24.706C13.823 23.4927 14.1071 22.0397 14.1012 20.3469C14.1012 18.6779 13.826 17.2486 13.2756 16.0589C12.7251 14.8634 11.9232 13.946 10.8697 13.3068C9.82209 12.6676 8.53776 12.348 7.01669 12.348H2.73757V28.4702ZM31.8369 11.3182H32.9466V23.3565C32.9466 24.5935 32.6596 25.6973 32.0855 26.668C31.5114 27.6327 30.7183 28.3962 29.7062 28.9585C28.7001 29.5148 27.543 29.793 26.235 29.793C24.9329 29.793 23.7758 29.5148 22.7638 28.9585C21.7517 28.3962 20.9556 27.6297 20.3756 26.6591C19.8015 25.6884 19.5174 24.5876 19.5233 23.3565V11.3182H20.6331V23.2944C20.6331 24.342 20.8698 25.2741 21.3433 26.0909C21.8227 26.9077 22.4826 27.5528 23.3231 28.0263C24.1635 28.4938 25.1341 28.7276 26.235 28.7276C27.3358 28.7276 28.3065 28.4938 29.1469 28.0263C29.9874 27.5528 30.6443 26.9077 31.1178 26.0909C31.5972 25.2741 31.8369 24.342 31.8369 23.2944V11.3182ZM48.0012 15.8636C47.9065 14.7332 47.4449 13.8188 46.6163 13.1204C45.7936 12.422 44.7283 12.0728 43.4203 12.0728C42.5384 12.0728 41.7542 12.2356 41.0676 12.5611C40.3811 12.8866 39.8425 13.3305 39.4519 13.8928C39.0613 14.455 38.8659 15.1001 38.8659 15.8281C38.8659 16.2957 38.9547 16.7189 39.1323 17.0977C39.3158 17.4705 39.5732 17.8049 39.9047 18.1009C40.2361 18.3909 40.6297 18.6454 41.0854 18.8643C41.5411 19.0833 42.0442 19.2757 42.5946 19.4414L44.5833 20.0273C45.2639 20.2345 45.8913 20.4742 46.4654 20.7464C47.0454 21.0187 47.5485 21.3442 47.9746 21.723C48.4067 22.0959 48.7411 22.5339 48.9778 23.0369C49.2205 23.54 49.3418 24.12 49.3418 24.777C49.3418 25.7358 49.0932 26.594 48.5961 27.3516C48.1048 28.1091 47.4035 28.7069 46.492 29.1449C45.5865 29.5769 44.5182 29.793 43.2871 29.793C42.1152 29.793 41.0943 29.5947 40.2243 29.1982C39.3601 28.8016 38.6766 28.2512 38.1735 27.5469C37.6704 26.8366 37.3863 26.0199 37.3212 25.0966H38.4576C38.5167 25.8482 38.7565 26.4993 39.1767 27.0497C39.6028 27.5942 40.168 28.0144 40.8723 28.3104C41.5766 28.6063 42.3816 28.7543 43.2871 28.7543C44.2637 28.7543 45.1248 28.5885 45.8706 28.2571C46.6163 27.9197 47.1993 27.4522 47.6195 26.8544C48.0397 26.2566 48.2498 25.5612 48.2498 24.7681C48.2498 24.1289 48.0989 23.5814 47.7971 23.1257C47.4952 22.67 47.0484 22.2764 46.4565 21.945C45.8706 21.6135 45.1426 21.3176 44.2725 21.0572L42.1507 20.418C40.7303 19.9859 39.6442 19.397 38.8926 18.6513C38.1468 17.9055 37.774 16.9763 37.774 15.8636C37.774 14.9285 38.0225 14.0999 38.5197 13.3778C39.0169 12.6499 39.6916 12.0787 40.5439 11.6644C41.402 11.2501 42.3697 11.043 43.4469 11.043C44.53 11.043 45.4859 11.2531 46.3145 11.6733C47.1431 12.0876 47.8 12.6587 48.2853 13.3867C48.7707 14.1088 49.04 14.9344 49.0932 15.8636H48.0012ZM52.5201 12.348V11.3182H65.2598V12.348H59.4448V29.5H58.335V12.348H52.5201ZM70.4134 11.3182V29.5H69.3036V11.3182H70.4134ZM89.5695 11.3182V29.5H88.4864L76.892 13.3335H76.7854V29.5H75.6757V11.3182H76.7677L88.3621 27.5025H88.4687V11.3182H89.5695ZM100.108 14.4876V11.3182H115.04V14.4876H109.474V29.5H105.674V14.4876H100.108ZM128.73 11.3182H132.574V23.1257C132.574 24.4515 132.257 25.6115 131.624 26.6058C130.996 27.6001 130.118 28.3755 128.987 28.9318C127.857 29.4822 126.54 29.7575 125.036 29.7575C123.527 29.7575 122.207 29.4822 121.077 28.9318C119.947 28.3755 119.068 27.6001 118.44 26.6058C117.813 25.6115 117.499 24.4515 117.499 23.1257V11.3182H121.343V22.7972C121.343 23.4897 121.494 24.1052 121.796 24.6438C122.104 25.1824 122.536 25.6056 123.092 25.9134C123.649 26.2211 124.297 26.375 125.036 26.375C125.782 26.375 126.43 26.2211 126.981 25.9134C127.537 25.6056 127.966 25.1824 128.268 24.6438C128.576 24.1052 128.73 23.4897 128.73 22.7972V11.3182ZM135.737 29.5V11.3182H142.91C144.283 11.3182 145.455 11.5638 146.425 12.055C147.402 12.5404 148.145 13.2299 148.654 14.1236C149.169 15.0114 149.426 16.056 149.426 17.2575C149.426 18.4648 149.166 19.5036 148.645 20.3736C148.124 21.2377 147.369 21.9006 146.381 22.3622C145.399 22.8239 144.209 23.0547 142.812 23.0547H138.009V19.9652H142.191C142.925 19.9652 143.534 19.8646 144.02 19.6634C144.505 19.4621 144.866 19.1603 145.103 18.7578C145.345 18.3554 145.467 17.8552 145.467 17.2575C145.467 16.6538 145.345 16.1448 145.103 15.7305C144.866 15.3162 144.502 15.0025 144.011 14.7894C143.525 14.5704 142.913 14.4609 142.173 14.4609H139.581V29.5H135.737ZM145.555 21.2259L150.074 29.5H145.831L141.409 21.2259H145.555ZM167.35 11.3182V29.5H164.03L156.12 18.0565H155.987V29.5H152.143V11.3182H155.516L163.364 22.7528H163.524V11.3182H167.35ZM170.527 29.5V11.3182H182.778V14.4876H174.371V18.82H182.148V21.9893H174.371V26.3306H182.813V29.5H170.527ZM185.834 29.5V11.3182H193.007C194.381 11.3182 195.552 11.5638 196.523 12.055C197.5 12.5404 198.242 13.2299 198.751 14.1236C199.266 15.0114 199.524 16.056 199.524 17.2575C199.524 18.4648 199.263 19.5036 198.743 20.3736C198.222 21.2377 197.467 21.9006 196.479 22.3622C195.496 22.8239 194.307 23.0547 192.91 23.0547H188.107V19.9652H192.288C193.022 19.9652 193.632 19.8646 194.117 19.6634C194.603 19.4621 194.964 19.1603 195.2 18.7578C195.443 18.3554 195.564 17.8552 195.564 17.2575C195.564 16.6538 195.443 16.1448 195.2 15.7305C194.964 15.3162 194.6 15.0025 194.108 14.7894C193.623 14.5704 193.01 14.4609 192.271 14.4609H189.678V29.5H185.834ZM195.653 21.2259L200.172 29.5H195.928L191.507 21.2259H195.653Z" fill="#FAFAFA"/>
</g>
<defs>
<clipPath id="clip0_1370_2184">
<rect width="200" height="40" fill="white"/>
</clipPath>
</defs>
</svg>


