<svg width="154" height="55" viewBox="0 0 154 55" fill="none" xmlns="http://www.w3.org/2000/svg">
<g clip-path="url(#clip0_1807_11)">
<g clip-path="url(#clip1_1807_11)">
<path d="M19.6246 6.5113C19.5343 6.51951 19.2469 6.54825 18.9883 6.56877C13.0229 7.10652 7.43519 10.3248 3.89619 15.2713C1.92551 18.0216 0.665103 21.1414 0.188856 24.4459C0.0205279 25.5994 0 25.9401 0 27.5041C0 29.0681 0.0205279 29.4088 0.188856 30.5623C1.33021 38.448 6.94252 45.0734 14.5543 47.5281C15.9173 47.9674 17.3543 48.267 18.9883 48.4477C19.6246 48.5174 22.3754 48.5174 23.0117 48.4477C25.8323 48.1357 28.2217 47.4378 30.5783 46.2351C30.9396 46.0504 31.0094 46.0011 30.9601 45.9601C30.9273 45.9354 29.3877 43.8706 27.5402 41.3748L24.1818 36.8388L19.9736 30.6116C17.6581 27.188 15.7531 24.3884 15.7367 24.3884C15.7202 24.3843 15.7038 27.1511 15.6956 30.5295C15.6833 36.4447 15.6792 36.6828 15.6053 36.8224C15.4985 37.0235 15.4164 37.1056 15.244 37.1959C15.1126 37.2616 14.9977 37.2739 14.3777 37.2739H13.6674L13.4786 37.1549C13.3554 37.0769 13.2651 36.9743 13.2035 36.8552L13.1173 36.6705L13.1255 28.44L13.1378 20.2055L13.2651 20.0454C13.3308 19.9592 13.4704 19.8483 13.5689 19.795C13.7372 19.7129 13.8029 19.7047 14.5132 19.7047C15.3507 19.7047 15.4903 19.7375 15.7079 19.9756C15.7695 20.0413 18.0481 23.473 20.7742 27.6067C23.5003 31.7404 27.2282 37.3848 29.0592 40.1556L32.3847 45.1924L32.5531 45.0816C34.0434 44.1128 35.6199 42.7335 36.868 41.2968C39.5243 38.2468 41.2364 34.5277 41.8111 30.5623C41.9795 29.4088 42 29.0681 42 27.5041C42 25.9401 41.9795 25.5994 41.8111 24.4459C40.6698 16.5603 35.0575 9.93485 27.4457 7.48007C26.1032 7.04495 24.6745 6.74529 23.0733 6.56467C22.6792 6.52362 19.9654 6.47846 19.6246 6.5113ZM28.2217 19.2121C28.4188 19.3106 28.5789 19.4994 28.6364 19.6965C28.6692 19.8032 28.6774 22.0856 28.6692 27.2291L28.6569 34.6098L27.3554 32.6148L26.0499 30.6198V25.2546C26.0499 21.7859 26.0663 19.836 26.0909 19.7416C26.1566 19.5117 26.3003 19.3311 26.4974 19.2244C26.6657 19.1382 26.7273 19.13 27.3718 19.13C27.9795 19.13 28.0862 19.1382 28.2217 19.2121Z" fill="#D4D4D4"/>
</g>
<path d="M70.3857 19.2149V36H67.681L59.772 24.5668H59.6327V36H56.592V19.2149H59.3131L67.2139 30.6563H67.3614V19.2149H70.3857ZM73.6988 36V19.2149H84.6157V21.7638H76.7395V26.3207H84.0502V28.8696H76.7395V33.4511H84.6813V36H73.6988ZM90.2585 19.2149L93.9549 25.3618H94.086L97.7987 19.2149H101.266L96.094 27.6075L101.348 36H97.8233L94.086 29.8941H93.9549L90.2176 36H86.7097L92.0124 27.6075L86.7753 19.2149H90.2585ZM102.915 21.7638V19.2149H116.307V21.7638H111.119V36H108.103V21.7638H102.915ZM119.796 36.1803C119.299 36.1803 118.873 36.0055 118.518 35.6558C118.163 35.3061 117.988 34.8799 117.993 34.3772C117.988 33.8855 118.163 33.4648 118.518 33.1151C118.873 32.7654 119.299 32.5905 119.796 32.5905C120.277 32.5905 120.695 32.7654 121.05 33.1151C121.411 33.4648 121.594 33.8855 121.599 34.3772C121.594 34.7105 121.507 35.0138 121.337 35.287C121.173 35.5602 120.955 35.7787 120.682 35.9426C120.414 36.1011 120.119 36.1803 119.796 36.1803ZM131.416 19.2149H134.432V31.0169C134.427 32.0988 134.197 33.0304 133.744 33.8117C133.29 34.5876 132.656 35.1859 131.842 35.6066C131.034 36.0219 130.091 36.2295 129.015 36.2295C128.031 36.2295 127.146 36.0546 126.359 35.7049C125.578 35.3498 124.958 34.8253 124.499 34.1313C124.04 33.4374 123.81 32.5741 123.81 31.5415H126.835C126.84 31.995 126.938 32.3856 127.13 32.7135C127.326 33.0413 127.597 33.2926 127.941 33.4675C128.285 33.6423 128.681 33.7298 129.129 33.7298C129.616 33.7298 130.028 33.6287 130.367 33.4265C130.706 33.2189 130.963 32.9129 131.137 32.5086C131.318 32.1042 131.411 31.607 131.416 31.0169V19.2149ZM146.853 23.8292C146.776 23.1134 146.454 22.5561 145.886 22.1572C145.323 21.7584 144.591 21.5589 143.689 21.5589C143.055 21.5589 142.512 21.6545 142.058 21.8458C141.605 22.037 141.258 22.2965 141.017 22.6244C140.777 22.9522 140.654 23.3265 140.649 23.7472C140.649 24.0969 140.728 24.4001 140.886 24.6569C141.05 24.9138 141.272 25.1323 141.55 25.3126C141.829 25.4875 142.138 25.635 142.476 25.7552C142.815 25.8754 143.157 25.9765 143.501 26.0584L145.074 26.4518C145.708 26.5994 146.317 26.7988 146.902 27.0501C147.492 27.3015 148.019 27.6184 148.484 28.0009C148.954 28.3833 149.325 28.845 149.599 29.386C149.872 29.9269 150.008 30.5607 150.008 31.2874C150.008 32.2709 149.757 33.1369 149.254 33.8855C148.752 34.6286 148.025 35.2105 147.074 35.6312C146.129 36.0464 144.984 36.2541 143.64 36.2541C142.334 36.2541 141.2 36.0519 140.239 35.6476C139.283 35.2433 138.534 34.6531 137.993 33.8773C137.458 33.1014 137.168 32.1561 137.124 31.0415H140.116C140.16 31.6262 140.34 32.1124 140.657 32.5004C140.974 32.8883 141.386 33.1779 141.894 33.3691C142.408 33.5604 142.982 33.656 143.616 33.656C144.277 33.656 144.856 33.5576 145.353 33.3609C145.856 33.1588 146.249 32.8801 146.533 32.525C146.817 32.1643 146.962 31.7436 146.968 31.2628C146.962 30.8257 146.834 30.4651 146.582 30.1809C146.331 29.8914 145.979 29.651 145.525 29.4597C145.077 29.263 144.553 29.0882 143.952 28.9352L142.042 28.4434C140.66 28.0883 139.567 27.5501 138.764 26.8288C137.966 26.1022 137.567 25.1378 137.567 23.9357C137.567 22.9467 137.835 22.0807 138.37 21.3376C138.911 20.5945 139.646 20.0181 140.575 19.6083C141.504 19.1931 142.556 18.9854 143.73 18.9854C144.921 18.9854 145.965 19.1931 146.861 19.6083C147.763 20.0181 148.47 20.5891 148.984 21.3212C149.497 22.0479 149.762 22.8839 149.779 23.8292H146.853Z" fill="#D4D4D4"/>
</g>
<defs>
<clipPath id="clip0_1807_11">
<rect width="154" height="55" fill="white"/>
</clipPath>
<clipPath id="clip1_1807_11">
<rect width="42" height="42" fill="white" transform="translate(0 6.5)"/>
</clipPath>
</defs>
</svg>
