<svg width="169" height="55" viewBox="0 0 169 55" fill="none" xmlns="http://www.w3.org/2000/svg">
<g clip-path="url(#clip0_1311_159)">
<g clip-path="url(#clip1_1311_159)">
<path d="M35.7338 18.2239L32.4668 21.4909C37.9119 26.9361 37.9119 35.8038 32.4668 41.2489C27.0216 46.6941 18.1539 46.6941 12.7088 41.2489C7.26363 35.8038 7.26363 26.9361 12.7088 21.4909L21.4209 12.7787L22.51 11.5341V5L9.28611 18.2239C7.54853 19.9439 6.16918 21.9914 5.22782 24.2478C4.28645 26.5043 3.80176 28.925 3.80176 31.3699C3.80176 33.8149 4.28645 36.2356 5.22782 38.492C6.16918 40.7485 7.54853 42.796 9.28611 44.516C11.0062 46.2536 13.0536 47.6329 15.3101 48.5743C17.5665 49.5157 19.9872 50.0004 22.4322 50.0004C24.8771 50.0004 27.2978 49.5157 29.5543 48.5743C31.8107 47.6329 33.8582 46.2536 35.5783 44.516C43.0458 37.204 43.0458 25.3803 35.7338 18.2239Z" fill="#D4D4D4"/>
<path d="M29.2001 17.2904C30.5749 17.2904 31.6893 16.176 31.6893 14.8012C31.6893 13.4265 30.5749 12.312 29.2001 12.312C27.8254 12.312 26.7109 13.4265 26.7109 14.8012C26.7109 16.176 27.8254 17.2904 29.2001 17.2904Z" fill="#D4D4D4"/>
</g>
<path d="M56.7231 36V19.2149H63.0175C64.307 19.2149 65.3889 19.4553 66.2631 19.9361C67.1428 20.417 67.8066 21.0781 68.2547 21.9195C68.7082 22.7555 68.9349 23.7062 68.9349 24.7717C68.9349 25.8481 68.7082 26.8043 68.2547 27.6402C67.8012 28.4762 67.1318 29.1346 66.2467 29.6154C65.3615 30.0908 64.2715 30.3285 62.9766 30.3285H58.8049V27.8287H62.5668C63.3208 27.8287 63.9382 27.6976 64.419 27.4353C64.8998 27.1731 65.255 26.8125 65.4845 26.3535C65.7194 25.8945 65.8369 25.3673 65.8369 24.7717C65.8369 24.1761 65.7194 23.6516 65.4845 23.1981C65.255 22.7446 64.8971 22.3922 64.4108 22.1408C63.93 21.884 63.3099 21.7556 62.5504 21.7556H59.7638V36H56.7231ZM70.4286 19.2149H73.8627L77.9688 26.6403H78.1327L82.2388 19.2149H85.6729L79.567 29.7384V36H76.5345V29.7384L70.4286 19.2149ZM88.148 21.7638V19.2149H101.54V21.7638H96.3521V36H93.336V21.7638H88.148ZM118.376 27.6075C118.376 29.416 118.038 30.965 117.36 32.2545C116.688 33.5385 115.77 34.522 114.606 35.205C113.448 35.888 112.134 36.2295 110.664 36.2295C109.194 36.2295 107.877 35.888 106.714 35.205C105.555 34.5166 104.637 33.5303 103.96 32.2463C103.288 30.9568 102.952 29.4105 102.952 27.6075C102.952 25.7989 103.288 24.2526 103.96 22.9686C104.637 21.6791 105.555 20.6929 106.714 20.0099C107.877 19.3269 109.194 18.9854 110.664 18.9854C112.134 18.9854 113.448 19.3269 114.606 20.0099C115.77 20.6929 116.688 21.6791 117.36 22.9686C118.038 24.2526 118.376 25.7989 118.376 27.6075ZM115.319 27.6075C115.319 26.3344 115.12 25.2607 114.721 24.3865C114.328 23.5068 113.781 22.8429 113.082 22.3949C112.382 21.9414 111.577 21.7146 110.664 21.7146C109.752 21.7146 108.946 21.9414 108.246 22.3949C107.547 22.8429 106.998 23.5068 106.599 24.3865C106.206 25.2607 106.009 26.3344 106.009 27.6075C106.009 28.8805 106.206 29.9569 106.599 30.8366C106.998 31.7108 107.547 32.3747 108.246 32.8282C108.946 33.2762 109.752 33.5003 110.664 33.5003C111.577 33.5003 112.382 33.2762 113.082 32.8282C113.781 32.3747 114.328 31.7108 114.721 30.8366C115.12 29.9569 115.319 28.8805 115.319 27.6075ZM121.251 36V19.2149H127.545C128.835 19.2149 129.917 19.4389 130.791 19.887C131.671 20.335 132.335 20.9634 132.783 21.772C133.236 22.5752 133.463 23.5123 133.463 24.5832C133.463 25.6596 133.233 26.5939 132.774 27.3862C132.321 28.173 131.652 28.7822 130.766 29.2138C129.881 29.64 128.794 29.8531 127.504 29.8531H123.021V27.3288H127.095C127.849 27.3288 128.466 27.225 128.947 27.0174C129.428 26.8043 129.783 26.4956 130.012 26.0912C130.247 25.6814 130.365 25.1788 130.365 24.5832C130.365 23.9876 130.247 23.4795 130.012 23.0588C129.777 22.6326 129.42 22.3102 128.939 22.0916C128.458 21.8676 127.838 21.7556 127.078 21.7556H124.292V36H121.251ZM129.922 28.3943L134.078 36H130.684L126.603 28.3943H129.922ZM150.629 24.8782H147.564C147.476 24.3756 147.315 23.9303 147.08 23.5423C146.845 23.1489 146.553 22.8156 146.203 22.5424C145.854 22.2692 145.455 22.0643 145.007 21.9277C144.564 21.7857 144.086 21.7146 143.572 21.7146C142.66 21.7146 141.851 21.9441 141.146 22.4031C140.442 22.8566 139.89 23.5232 139.491 24.4029C139.092 25.2771 138.893 26.3453 138.893 27.6075C138.893 28.8915 139.092 29.9733 139.491 30.853C139.895 31.7272 140.447 32.3884 141.146 32.8364C141.851 33.279 142.657 33.5003 143.564 33.5003C144.067 33.5003 144.537 33.4347 144.974 33.3036C145.417 33.167 145.813 32.9675 146.162 32.7053C146.517 32.443 146.815 32.1206 147.056 31.7382C147.302 31.3557 147.471 30.9186 147.564 30.4268L150.629 30.4432C150.514 31.2409 150.266 31.9895 149.883 32.6889C149.506 33.3883 149.012 34.0057 148.4 34.5411C147.788 35.0711 147.072 35.4864 146.252 35.7869C145.433 36.082 144.523 36.2295 143.523 36.2295C142.048 36.2295 140.731 35.888 139.573 35.205C138.415 34.522 137.502 33.5358 136.835 32.2463C136.169 30.9568 135.836 29.4105 135.836 27.6075C135.836 25.7989 136.172 24.2526 136.844 22.9686C137.516 21.6791 138.431 20.6929 139.589 20.0099C140.748 19.3269 142.059 18.9854 143.523 18.9854C144.458 18.9854 145.326 19.1166 146.13 19.3788C146.933 19.6411 147.649 20.0263 148.277 20.5344C148.905 21.0371 149.422 21.6545 149.826 22.3867C150.236 23.1134 150.503 23.9439 150.629 24.8782ZM153.414 36V19.2149H156.454V26.3207H164.232V19.2149H167.281V36H164.232V28.8696H156.454V36H153.414Z" fill="#D4D4D4"/>
</g>
<defs>
<clipPath id="clip0_1311_159">
<rect width="169" height="55" fill="white"/>
</clipPath>
<clipPath id="clip1_1311_159">
<rect width="45" height="45" fill="white" transform="translate(0 5)"/>
</clipPath>
</defs>
</svg>
