<svg width="177" height="55" viewBox="0 0 177 55" fill="none" xmlns="http://www.w3.org/2000/svg">
<g clip-path="url(#clip0_1817_11)">
<g clip-path="url(#clip1_1817_11)">
<mask id="mask0_1817_11" style="mask-type:luminance" maskUnits="userSpaceOnUse" x="0" y="11" width="54" height="33">
<path d="M0 11H54V43.4H0V11Z" fill="white"/>
</mask>
<g mask="url(#mask0_1817_11)">
<path fill-rule="evenodd" clip-rule="evenodd" d="M27 11C19.8 11 15.3 14.6 13.5 21.8C16.2 18.2 19.35 16.85 22.95 17.75C25.004 18.263 26.472 19.754 28.097 21.403C30.744 24.09 33.808 27.2 40.5 27.2C47.7 27.2 52.2 23.6 54 16.4C51.3 20 48.15 21.35 44.55 20.45C42.496 19.937 41.028 18.446 39.403 16.797C36.756 14.11 33.692 11 27 11ZM13.5 27.2C6.3 27.2 1.8 30.8 0 38C2.7 34.4 5.85 33.05 9.45 33.95C11.504 34.464 12.972 35.954 14.597 37.603C17.244 40.29 20.308 43.4 27 43.4C34.2 43.4 38.7 39.8 40.5 32.6C37.8 36.2 34.65 37.55 31.05 36.65C28.996 36.137 27.528 34.646 25.903 32.997C23.256 30.31 20.192 27.2 13.5 27.2Z" fill="#D4D4D4"/>
</g>
</g>
<path d="M65.3758 21.7638V19.2149H78.7678V21.7638H73.5798V36H70.5637V21.7638H65.3758ZM81.4765 36H78.231L84.1402 19.2149H87.8939L93.8113 36H90.5657L86.0826 22.6572H85.9514L81.4765 36ZM81.5831 29.4187H90.4346V31.8611H81.5831V29.4187ZM99.0627 19.2149V36H96.0221V19.2149H99.0627ZM102.355 36V19.2149H105.396V33.4511H112.789V36H102.355ZM118.329 36L113.592 19.2149H116.862L119.886 31.5497H120.042L123.271 19.2149H126.246L129.484 31.5579H129.631L132.655 19.2149H135.926L131.188 36H128.189L124.828 24.2226H124.697L121.329 36H118.329ZM141.075 19.2149V36H138.034V19.2149H141.075ZM158.161 19.2149V36H155.456L147.547 24.5668H147.408V36H144.367V19.2149H147.088L154.989 30.6563H155.137V19.2149H158.161ZM167.162 36H161.474V19.2149H167.277C168.943 19.2149 170.375 19.5509 171.571 20.223C172.773 20.8896 173.697 21.8485 174.342 23.0997C174.986 24.351 175.309 25.8481 175.309 27.5911C175.309 29.3395 174.984 30.8421 174.333 32.0988C173.689 33.3555 172.757 34.3199 171.539 34.9919C170.326 35.664 168.867 36 167.162 36ZM164.515 33.3691H167.014C168.184 33.3691 169.159 33.156 169.94 32.7299C170.722 32.2982 171.309 31.6562 171.703 30.8038C172.096 29.946 172.293 28.8751 172.293 27.5911C172.293 26.307 172.096 25.2416 171.703 24.3947C171.309 23.5423 170.727 22.9058 169.957 22.4851C169.192 22.0589 168.241 21.8458 167.105 21.8458H164.515V33.3691Z" fill="#D4D4D4"/>
</g>
<defs>
<clipPath id="clip0_1817_11">
<rect width="177" height="55" fill="white"/>
</clipPath>
<clipPath id="clip1_1817_11">
<rect width="54" height="33" fill="white" transform="translate(0 11)"/>
</clipPath>
</defs>
</svg>
