<svg width="213" height="55" viewBox="0 0 213 55" fill="none" xmlns="http://www.w3.org/2000/svg">
<g clip-path="url(#clip0_1317_169)">
<g clip-path="url(#clip1_1317_169)">
<path d="M20.1959 48.5L13.0297 44.3394V19.8055L2.23438 26.0431L2.26062 16.7506L20.1959 6.5V48.5ZM21.807 6.5V48.5L28.9733 44.3394V32.5236L34.3841 35.6506L34.3512 27.5689L28.9733 24.4977V19.8055L39.7653 26.0431L39.7391 16.7506L21.807 6.5Z" fill="#D4D4D4"/>
</g>
<path d="M52.989 21.7638V19.2149H66.381V21.7638H61.1931V36H58.177V21.7638H52.989ZM68.9627 36V19.2149H79.8796V21.7638H72.0034V26.3207H79.3141V28.8696H72.0034V33.4511H79.9452V36H68.9627ZM96.7753 19.2149V36H94.0707L86.1617 24.5668H86.0224V36H82.9817V19.2149H85.7027L93.6035 30.6563H93.7511V19.2149H96.7753ZM109.21 23.8292C109.134 23.1134 108.812 22.5561 108.243 22.1572C107.681 21.7584 106.948 21.5589 106.047 21.5589C105.413 21.5589 104.869 21.6545 104.416 21.8458C103.962 22.037 103.615 22.2965 103.375 22.6244C103.135 22.9522 103.012 23.3265 103.006 23.7472C103.006 24.0969 103.085 24.4001 103.244 24.6569C103.408 24.9138 103.629 25.1323 103.908 25.3126C104.186 25.4875 104.495 25.635 104.834 25.7552C105.173 25.8754 105.514 25.9765 105.858 26.0584L107.432 26.4518C108.066 26.5994 108.675 26.7988 109.26 27.0501C109.85 27.3015 110.377 27.6184 110.841 28.0009C111.311 28.3833 111.683 28.845 111.956 29.386C112.229 29.9269 112.366 30.5607 112.366 31.2874C112.366 32.2709 112.115 33.1369 111.612 33.8855C111.109 34.6286 110.382 35.2105 109.432 35.6312C108.487 36.0464 107.342 36.2541 105.998 36.2541C104.692 36.2541 103.558 36.0519 102.596 35.6476C101.64 35.2433 100.892 34.6531 100.351 33.8773C99.8153 33.1014 99.5257 32.1561 99.482 31.0415H102.473C102.517 31.6262 102.698 32.1124 103.014 32.5004C103.331 32.8883 103.744 33.1779 104.252 33.3691C104.766 33.5604 105.339 33.656 105.973 33.656C106.634 33.656 107.213 33.5576 107.711 33.3609C108.213 33.1588 108.607 32.8801 108.891 32.525C109.175 32.1643 109.32 31.7436 109.325 31.2628C109.32 30.8257 109.191 30.4651 108.94 30.1809C108.689 29.8914 108.336 29.651 107.883 29.4597C107.435 29.263 106.91 29.0882 106.309 28.9352L104.4 28.4434C103.017 28.0883 101.924 27.5501 101.121 26.8288C100.323 26.1022 99.9246 25.1378 99.9246 23.9357C99.9246 22.9467 100.192 22.0807 100.728 21.3376C101.269 20.5945 102.004 20.0181 102.932 19.6083C103.861 19.1931 104.913 18.9854 106.088 18.9854C107.279 18.9854 108.323 19.1931 109.219 19.6083C110.12 20.0181 110.828 20.5891 111.341 21.3212C111.855 22.0479 112.12 22.8839 112.136 23.8292H109.21ZM130.075 27.6075C130.075 29.416 129.736 30.965 129.059 32.2545C128.387 33.5385 127.469 34.522 126.305 35.205C125.147 35.888 123.833 36.2295 122.363 36.2295C120.893 36.2295 119.576 35.888 118.412 35.205C117.254 34.5166 116.336 33.5303 115.659 32.2463C114.987 30.9568 114.65 29.4105 114.65 27.6075C114.65 25.7989 114.987 24.2526 115.659 22.9686C116.336 21.6791 117.254 20.6929 118.412 20.0099C119.576 19.3269 120.893 18.9854 122.363 18.9854C123.833 18.9854 125.147 19.3269 126.305 20.0099C127.469 20.6929 128.387 21.6791 129.059 22.9686C129.736 24.2526 130.075 25.7989 130.075 27.6075ZM127.018 27.6075C127.018 26.3344 126.819 25.2607 126.42 24.3865C126.026 23.5068 125.48 22.8429 124.781 22.3949C124.081 21.9414 123.275 21.7146 122.363 21.7146C121.45 21.7146 120.644 21.9414 119.945 22.3949C119.246 22.8429 118.696 23.5068 118.298 24.3865C117.904 25.2607 117.708 26.3344 117.708 27.6075C117.708 28.8805 117.904 29.9569 118.298 30.8366C118.696 31.7108 119.246 32.3747 119.945 32.8282C120.644 33.2762 121.45 33.5003 122.363 33.5003C123.275 33.5003 124.081 33.2762 124.781 32.8282C125.48 32.3747 126.026 31.7108 126.42 30.8366C126.819 29.9569 127.018 28.8805 127.018 27.6075ZM132.95 36V19.2149H139.244C140.534 19.2149 141.615 19.4389 142.49 19.887C143.369 20.335 144.033 20.9634 144.481 21.772C144.935 22.5752 145.162 23.5123 145.162 24.5832C145.162 25.6596 144.932 26.5939 144.473 27.3862C144.02 28.173 143.35 28.7822 142.465 29.2138C141.58 29.64 140.493 29.8531 139.203 29.8531H134.72V27.3288H138.793C139.547 27.3288 140.165 27.225 140.646 27.0174C141.126 26.8043 141.482 26.4956 141.711 26.0912C141.946 25.6814 142.064 25.1788 142.064 24.5832C142.064 23.9876 141.946 23.4795 141.711 23.0588C141.476 22.6326 141.118 22.3102 140.637 22.0916C140.157 21.8676 139.536 21.7556 138.777 21.7556H135.99V36H132.95ZM141.621 28.3943L145.776 36H142.383L138.302 28.3943H141.621ZM147.96 36V19.2149H158.713V21.7638H151.001V26.3207H157.976V28.8696H151.001V36H147.96ZM161.484 36V19.2149H164.524V33.4511H171.917V36H161.484ZM188.901 27.6075C188.901 29.416 188.562 30.965 187.884 32.2545C187.212 33.5385 186.294 34.522 185.131 35.205C183.972 35.888 182.658 36.2295 181.188 36.2295C179.719 36.2295 178.402 35.888 177.238 35.205C176.08 34.5166 175.162 33.5303 174.484 32.2463C173.812 30.9568 173.476 29.4105 173.476 27.6075C173.476 25.7989 173.812 24.2526 174.484 22.9686C175.162 21.6791 176.08 20.6929 177.238 20.0099C178.402 19.3269 179.719 18.9854 181.188 18.9854C182.658 18.9854 183.972 19.3269 185.131 20.0099C186.294 20.6929 187.212 21.6791 187.884 22.9686C188.562 24.2526 188.901 25.7989 188.901 27.6075ZM185.844 27.6075C185.844 26.3344 185.644 25.2607 185.245 24.3865C184.852 23.5068 184.306 22.8429 183.606 22.3949C182.907 21.9414 182.101 21.7146 181.188 21.7146C180.276 21.7146 179.47 21.9414 178.771 22.3949C178.071 22.8429 177.522 23.5068 177.123 24.3865C176.73 25.2607 176.533 26.3344 176.533 27.6075C176.533 28.8805 176.73 29.9569 177.123 30.8366C177.522 31.7108 178.071 32.3747 178.771 32.8282C179.47 33.2762 180.276 33.5003 181.188 33.5003C182.101 33.5003 182.907 33.2762 183.606 32.8282C184.306 32.3747 184.852 31.7108 185.245 30.8366C185.644 29.9569 185.844 28.8805 185.844 27.6075ZM194.88 36L190.142 19.2149H193.413L196.437 31.5497H196.593L199.822 19.2149H202.797L206.034 31.5579H206.182L209.206 19.2149H212.476L207.739 36H204.739L201.379 24.2226H201.248L197.879 36H194.88Z" fill="#D4D4D4"/>
</g>
<defs>
<clipPath id="clip0_1317_169">
<rect width="213" height="55" fill="white"/>
</clipPath>
<clipPath id="clip1_1317_169">
<rect width="42" height="42" fill="white" transform="translate(0 6.5)"/>
</clipPath>
</defs>
</svg>
